<?xml version="1.0" encoding="UTF-8"?>
<!DOCTYPE svg PUBLIC "-//W3C//DTD SVG 1.1//EN" "http://www.w3.org/Graphics/SVG/1.1/DTD/svg11.dtd">
<svg xmlns="http://www.w3.org/2000/svg" version="1.1" width="192px" height="54px" style="shape-rendering:geometricPrecision; text-rendering:geometricPrecision; image-rendering:optimizeQuality; fill-rule:evenodd; clip-rule:evenodd" xmlns:xlink="http://www.w3.org/1999/xlink">
<g><path style="opacity:0.931" fill="#64baff" d="M 183.5,11.5 C 188.651,11.6536 189.984,13.8202 187.5,18C 182.57,18.427 181.237,16.2604 183.5,11.5 Z"/></g>
<g><path style="opacity:0.964" fill="#66bcff" d="M 12.5,12.5 C 28.4653,13.419 33.632,21.419 28,36.5C 22.6053,42.549 16.1053,44.049 8.5,41C 1.34567,36.2325 -0.820993,29.7325 2,21.5C 4.10285,16.7217 7.60285,13.7217 12.5,12.5 Z M 12.5,18.5 C 20.9178,18.0847 24.7511,22.0847 24,30.5C 21.5976,36.092 17.4309,37.9253 11.5,36C 4.85323,29.7848 5.18656,23.9515 12.5,18.5 Z"/></g>
<g><path style="opacity:0.964" fill="#66bcff" d="M 123.5,12.5 C 139.465,13.419 144.632,21.419 139,36.5C 133.605,42.549 127.105,44.049 119.5,41C 112.346,36.2325 110.179,29.7325 113,21.5C 115.103,16.7217 118.603,13.7217 123.5,12.5 Z M 123.5,18.5 C 131.918,18.0847 135.751,22.0847 135,30.5C 132.598,36.092 128.431,37.9253 122.5,36C 115.853,29.7848 116.187,23.9515 123.5,18.5 Z"/></g>
<g><path style="opacity:0.938" fill="#67baff" d="M 54.5,15.5 C 56.5,15.5 58.5,15.5 60.5,15.5C 60.5,17.1667 60.5,18.8333 60.5,20.5C 64.1612,20.3501 65.1612,21.8501 63.5,25C 62.552,25.4828 61.552,25.6495 60.5,25.5C 60.5,29.1667 60.5,32.8333 60.5,36.5C 61.5,36.5 62.5,36.5 63.5,36.5C 63.8164,42.7927 61.3164,44.126 56,40.5C 54.6115,35.6278 54.1115,30.6278 54.5,25.5C 53.5,25.5 52.5,25.5 51.5,25.5C 51.5,23.8333 51.5,22.1667 51.5,20.5C 52.5,20.5 53.5,20.5 54.5,20.5C 54.5,18.8333 54.5,17.1667 54.5,15.5 Z"/></g>
<g><path style="opacity:0.938" fill="#67baff" d="M 170.5,15.5 C 172.5,15.5 174.5,15.5 176.5,15.5C 176.5,17.1667 176.5,18.8333 176.5,20.5C 180.161,20.3501 181.161,21.8501 179.5,25C 178.552,25.4828 177.552,25.6495 176.5,25.5C 176.5,29.1667 176.5,32.8333 176.5,36.5C 177.5,36.5 178.5,36.5 179.5,36.5C 179.816,42.7927 177.316,44.126 172,40.5C 170.612,35.6278 170.112,30.6278 170.5,25.5C 169.5,25.5 168.5,25.5 167.5,25.5C 167.5,23.8333 167.5,22.1667 167.5,20.5C 168.5,20.5 169.5,20.5 170.5,20.5C 170.5,18.8333 170.5,17.1667 170.5,15.5 Z"/></g>
<g><path style="opacity:0.968" fill="#66bcff" d="M 37.5,20.5 C 43.8449,19.0051 48.1782,21.1717 50.5,27C 47.2475,27.7913 44.2475,27.2913 41.5,25.5C 40.263,25.5565 39.263,26.0565 38.5,27C 41.7861,28.3279 45.1194,29.6612 48.5,31C 51.2688,34.6068 50.9355,37.9401 47.5,41C 42.0016,43.5973 37.1683,42.7639 33,38.5C 32.51,37.2068 32.3433,35.8734 32.5,34.5C 34.1992,34.3398 35.8659,34.5065 37.5,35C 39.7708,37.9995 42.1041,38.1662 44.5,35.5C 40.7255,34.353 37.2255,32.6863 34,30.5C 32.5812,26.0823 33.7478,22.7489 37.5,20.5 Z"/></g>
<g><path style="opacity:0.94" fill="#66bcff" d="M 70.5,20.5 C 80.6029,19.041 85.6029,23.3744 85.5,33.5C 80.4889,33.3341 75.4889,33.5007 70.5,34C 73.1441,38.0825 76.1441,38.4158 79.5,35C 85.6828,33.3221 86.8494,34.8221 83,39.5C 73.1767,45.1702 67.01,42.5035 64.5,31.5C 64.7154,26.7269 66.7154,23.0603 70.5,20.5 Z M 72.5,25.5 C 75.3456,25.0301 77.6789,25.8634 79.5,28C 76.5,28.6667 73.5,28.6667 70.5,28C 71.3805,27.2917 72.0472,26.4584 72.5,25.5 Z"/></g>
<g><path style="opacity:0.968" fill="#67bbff" d="M 94.5,20.5 C 105.458,19.0352 110.292,23.7018 109,34.5C 106.747,40.9258 102.247,43.4258 95.5,42C 88.0639,38.7065 85.8972,33.2065 89,25.5C 90.7297,23.5981 92.563,21.9314 94.5,20.5 Z M 96.5,25.5 C 102.546,25.5727 104.713,28.5727 103,34.5C 100,38.5 97,38.5 94,34.5C 92.9302,30.8579 93.7636,27.8579 96.5,25.5 Z"/></g>
<g><path style="opacity:0.941" fill="#66bcff" d="M 144.5,20.5 C 149.763,21.066 155.096,21.2326 160.5,21C 165.249,24.233 167.082,28.733 166,34.5C 163.203,42.0665 158.203,44.0665 151,40.5C 150.502,43.8168 150.335,47.1501 150.5,50.5C 148.5,50.5 146.5,50.5 144.5,50.5C 144.5,40.5 144.5,30.5 144.5,20.5 Z M 153.5,25.5 C 159.546,25.5727 161.713,28.5727 160,34.5C 157,38.5 154,38.5 151,34.5C 149.93,30.8579 150.764,27.8579 153.5,25.5 Z"/></g>
<g><path style="opacity:0.903" fill="#67bdff" d="M 182.5,20.5 C 184.5,20.5 186.5,20.5 188.5,20.5C 188.5,27.5 188.5,34.5 188.5,41.5C 186.5,41.5 184.5,41.5 182.5,41.5C 182.5,34.5 182.5,27.5 182.5,20.5 Z"/></g>
</svg>
